<svg width="13" height="15" viewBox="0 0 13 15" fill="none" xmlns="http://www.w3.org/2000/svg">
<path d="M7.90194 9.45749C7.90194 9.43118 7.91862 9.40973 7.91862 9.38536V7.71004C7.91166 7.66336 7.90157 7.61714 7.88839 7.57165C8.54169 7.19251 9.07998 6.66291 9.45174 6.03359C9.82349 5.40426 10.0163 4.69625 10.0116 3.97732C10.0116 1.78058 8.43875 0 6.5 0C4.56126 0 2.98838 1.77961 2.98838 3.97732C3.00508 4.69886 3.21518 5.40495 3.59943 6.03088C3.98368 6.6568 4.52978 7.18253 5.1877 7.55993C5.17215 7.60906 5.16065 7.65926 5.15331 7.71004V9.3834C5.15604 9.39688 5.15952 9.41023 5.16373 9.42338C2.19307 9.76643 0 11.2751 0 12.7672C0 14.464 2.90916 15 6.5 15C10.0908 15 13 14.464 13 12.7672C12.999 11.3131 10.7955 9.84635 7.90194 9.45749Z" fill="#030303"/>
</svg>
